<svg width="439" height="52" viewBox="0 0 439 52" fill="none" xmlns="http://www.w3.org/2000/svg">
<path d="M18.815 51.688C15.2177 51.688 11.999 51.049 9.159 49.771C6.319 48.493 4.07067 46.576 2.414 44.02C0.804667 41.4167 0 38.1743 0 34.293V32.802H5.893V34.293C5.893 38.411 7.1 41.4877 9.514 43.523C11.928 45.511 15.0283 46.505 18.815 46.505C22.6963 46.505 25.6547 45.6293 27.69 43.878C29.7253 42.1267 30.743 39.9257 30.743 37.275C30.743 35.429 30.2697 33.9617 29.323 32.873C28.4237 31.7843 27.1457 30.9087 25.489 30.246C23.8323 29.536 21.8917 28.9207 19.667 28.4L15.975 27.477C13.0877 26.7197 10.5317 25.7967 8.307 24.708C6.08233 23.6193 4.331 22.1993 3.053 20.448C1.82233 18.6493 1.207 16.3537 1.207 13.561C1.207 10.7683 1.89333 8.35434 3.266 6.319C4.686 4.28367 6.65033 2.72167 9.159 1.633C11.715 0.544333 14.6497 0 17.963 0C21.3237 0 24.3293 0.591667 26.98 1.775C29.678 2.911 31.7843 4.615 33.299 6.887C34.861 9.11167 35.642 11.928 35.642 15.336V18.318H29.749V15.336C29.749 12.922 29.2283 10.9813 28.187 9.514C27.193 8.04667 25.7967 6.958 23.998 6.248C22.2467 5.538 20.235 5.183 17.963 5.183C14.697 5.183 12.07 5.91667 10.082 7.384C8.094 8.804 7.1 10.8393 7.1 13.49C7.1 15.2413 7.526 16.6613 8.378 17.75C9.23 18.8387 10.437 19.738 11.999 20.448C13.561 21.1107 15.4307 21.7023 17.608 22.223L21.3 23.146C24.1873 23.7613 26.767 24.6133 29.039 25.702C31.3583 26.7433 33.2043 28.187 34.577 30.033C35.9497 31.8317 36.636 34.1983 36.636 37.133C36.636 40.0677 35.9023 42.6237 34.435 44.801C32.9677 46.9783 30.885 48.6823 28.187 49.913C25.5363 51.0963 22.4123 51.688 18.815 51.688Z" fill="white"/>
<path d="M81.599 51.688C75.6823 51.688 70.949 49.984 67.399 46.576C63.8963 43.1207 62.145 38.1033 62.145 31.524V20.164C62.145 13.5847 63.8963 8.591 67.399 5.183C70.949 1.72767 75.6823 0 81.599 0C87.563 0 92.2963 1.72767 95.799 5.183C99.349 8.591 101.124 13.5847 101.124 20.164V31.524C101.124 38.1033 99.349 43.1207 95.799 46.576C92.2963 49.984 87.563 51.688 81.599 51.688ZM81.599 46.363C85.9063 46.363 89.2433 45.085 91.61 42.529C93.9766 39.9257 95.16 36.3283 95.16 31.737V19.951C95.16 15.3597 93.9766 11.786 91.61 9.23C89.2433 6.62667 85.9063 5.325 81.599 5.325C77.339 5.325 74.0256 6.62667 71.659 9.23C69.2923 11.786 68.109 15.3597 68.109 19.951V31.737C68.109 36.3283 69.2923 39.9257 71.659 42.529C74.0256 45.085 77.339 46.363 81.599 46.363Z" fill="white"/>
<path d="M118.87 50.694V0.994H124.834V45.298H149.968V50.694H118.87Z" fill="white"/>
<path d="M182.362 51.688C178.67 51.688 175.451 51.0253 172.706 49.7C169.96 48.3747 167.83 46.4103 166.316 43.807C164.801 41.1563 164.044 37.914 164.044 34.08V0.994H169.937V34.151C169.937 38.2217 171.026 41.2747 173.203 43.31C175.38 45.3453 178.433 46.363 182.362 46.363C186.29 46.363 189.343 45.3453 191.521 43.31C193.698 41.2747 194.787 38.2217 194.787 34.151V0.994H200.751V34.08C200.751 37.914 199.994 41.1563 198.479 43.807C196.964 46.4103 194.811 48.3747 192.018 49.7C189.273 51.0253 186.054 51.688 182.362 51.688Z" fill="white"/>
<path d="M231.708 50.694V6.39H215.733V0.994H253.647V6.39H237.672V50.694H231.708Z" fill="white"/>
<path d="M269.046 50.694V0.994H275.01V50.694H269.046Z" fill="white"/>
<path d="M312.224 51.688C306.307 51.688 301.574 49.984 298.024 46.576C294.521 43.1207 292.77 38.1033 292.77 31.524V20.164C292.77 13.5847 294.521 8.591 298.024 5.183C301.574 1.72767 306.307 0 312.224 0C318.188 0 322.921 1.72767 326.424 5.183C329.974 8.591 331.749 13.5847 331.749 20.164V31.524C331.749 38.1033 329.974 43.1207 326.424 46.576C322.921 49.984 318.188 51.688 312.224 51.688ZM312.224 46.363C316.531 46.363 319.869 45.085 322.235 42.529C324.602 39.9257 325.785 36.3283 325.785 31.737V19.951C325.785 15.3597 324.602 11.786 322.235 9.23C319.869 6.62667 316.531 5.325 312.224 5.325C307.964 5.325 304.651 6.62667 302.284 9.23C299.917 11.786 298.734 15.3597 298.734 19.951V31.737C298.734 36.3283 299.917 39.9257 302.284 42.529C304.651 45.085 307.964 46.363 312.224 46.363Z" fill="white"/>
<path d="M349.495 50.694V0.994H361.068L378.392 46.931H379.315V0.994H385.208V50.694H373.635L356.382 4.686H355.388V50.694H349.495Z" fill="white"/>
<path d="M420.997 51.688C417.399 51.688 414.181 51.049 411.341 49.771C408.501 48.493 406.252 46.576 404.596 44.02C402.986 41.4167 402.182 38.1743 402.182 34.293V32.802H408.075V34.293C408.075 38.411 409.282 41.4877 411.696 43.523C414.11 45.511 417.21 46.505 420.997 46.505C424.878 46.505 427.836 45.6293 429.872 43.878C431.907 42.1267 432.925 39.9257 432.925 37.275C432.925 35.429 432.451 33.9617 431.505 32.873C430.605 31.7843 429.327 30.9087 427.671 30.246C426.014 29.536 424.073 28.9207 421.849 28.4L418.157 27.477C415.269 26.7197 412.713 25.7967 410.489 24.708C408.264 23.6193 406.513 22.1993 405.235 20.448C404.004 18.6493 403.389 16.3537 403.389 13.561C403.389 10.7683 404.075 8.35434 405.448 6.319C406.868 4.28367 408.832 2.72167 411.341 1.633C413.897 0.544333 416.831 0 420.145 0C423.505 0 426.511 0.591667 429.162 1.775C431.86 2.911 433.966 4.615 435.481 6.887C437.043 9.11167 437.824 11.928 437.824 15.336V18.318H431.931V15.336C431.931 12.922 431.41 10.9813 430.369 9.514C429.375 8.04667 427.978 6.958 426.18 6.248C424.428 5.538 422.417 5.183 420.145 5.183C416.879 5.183 414.252 5.91667 412.264 7.384C410.276 8.804 409.282 10.8393 409.282 13.49C409.282 15.2413 409.708 16.6613 410.56 17.75C411.412 18.8387 412.619 19.738 414.181 20.448C415.743 21.1107 417.612 21.7023 419.79 22.223L423.482 23.146C426.369 23.7613 428.949 24.6133 431.221 25.702C433.54 26.7433 435.386 28.187 436.759 30.033C438.131 31.8317 438.818 34.1983 438.818 37.133C438.818 40.0677 438.084 42.6237 436.617 44.801C435.149 46.9783 433.067 48.6823 430.369 49.913C427.718 51.0963 424.594 51.688 420.997 51.688Z" fill="white"/>
</svg>
