<svg width="73" height="73" viewBox="0 0 73 73" fill="none" xmlns="http://www.w3.org/2000/svg">
<path d="M0 10C0 4.47715 4.47715 0 10 0H63C68.5228 0 73 4.47715 73 10V63C73 68.5228 68.5228 73 63 73H10C4.47715 73 0 68.5228 0 63V10Z" fill="black"/>
<path d="M62.2877 34.3814C59.9158 31.528 56.8286 28.6981 53.8249 25.9508C51.1192 23.4747 48.33 20.9278 45.9223 18.2277C45.7435 18.0272 45.5528 17.8504 45.3382 17.6971C44.039 16.7774 42.4299 16.1407 41.0115 16.011C38.4964 15.7751 31.7977 15.7044 29.6164 16.0345C29.2231 16.0935 28.9609 16.294 28.8297 16.6359C28.6986 16.966 28.6867 17.4848 29.0443 17.9447C29.974 19.1474 33.228 22.0951 34.0862 22.5314C34.861 22.8851 35.6119 22.9323 36.637 22.9795C38.3415 23.062 40.6896 23.1799 43.2285 25.1372C45.6243 26.9648 47.8294 29.382 49.9749 31.7166C51.8463 33.7565 53.6223 35.6902 55.4459 37.1877L55.9942 37.6357L56.2446 38.3078C57.3054 41.1612 57.9133 44.1679 56.3518 46.5851C54.7189 49.1084 51.8939 50.6884 48.6399 50.9242C44.3966 51.2308 39.0328 51.0893 34.7299 50.9478C31.2017 50.8299 27.5544 50.7237 24.1454 50.8535L23.5852 50.877L22.4647 50.4526C21.9641 50.2639 21.4993 49.9691 21.1298 49.5918L8.32824 36.8457C8.12561 36.716 7.69651 36.6099 7.47004 36.6453C7.4462 36.6806 7.43428 36.7514 7.41044 36.8457L7.67267 45.2999C7.73226 45.8069 7.8753 45.9955 8.12561 46.2785C8.19712 46.3729 8.25672 46.4436 8.31632 46.5144C9.78242 48.4245 17.1844 55.676 19.02 56.8787C19.3657 57.1027 19.7948 57.2324 20.3431 57.4093C20.5457 57.48 20.7603 57.539 20.9867 57.6097C21.3682 57.7394 21.7853 57.8102 22.1906 57.8102H52.6449C54.8619 57.8102 57.067 57.3031 58.9503 56.1594C60.5594 55.1808 61.8229 53.8955 62.7407 52.3037C64.9935 48.4363 65.0888 37.789 62.2758 34.3696L62.2877 34.3814Z" fill="#FF4A00"/>
<path d="M20.653 35.5015C22.1787 37.0226 23.7044 38.4493 25.2539 39.6991C26.3028 40.5481 28.5675 41.3617 29.9025 41.397C32.0599 41.4442 34.3604 41.4206 36.5774 41.397L38.5084 41.3735C38.8421 41.3735 39.1878 41.3735 39.5334 41.397C40.4751 41.4206 41.6313 41.456 41.8935 41.1141C42.3107 40.5953 42.0961 40.0411 41.822 39.6756C41.2975 38.9917 37.9124 35.6784 37.1853 35.1596C36.5178 34.7115 35.4808 34.6526 34.265 34.5936C32.3222 34.4757 29.9025 34.346 27.7808 32.4712L27.5067 32.1883C25.981 30.3842 24.0143 28.6156 21.9284 26.729L20.7483 25.656C20.1285 25.0901 19.175 25.1136 18.5671 25.7032L14.8124 29.382C15.2654 29.8654 15.7064 30.3489 16.1474 30.8205C17.6135 32.4005 19.1154 33.9923 20.6291 35.5133L20.653 35.5015Z" fill="#FF4A00"/>
</svg>
