<svg width="48" height="34" viewBox="0 0 48 34" fill="none" xmlns="http://www.w3.org/2000/svg">
<path d="M46.2125 15.0339C44.215 12.7239 41.6153 10.4331 39.0859 8.2091C36.8074 6.20462 34.4586 4.14288 32.431 1.95705C32.2805 1.79478 32.1199 1.6516 31.9392 1.52752C30.8451 0.782996 29.4901 0.26756 28.2956 0.162564C26.1777 -0.0283388 20.5366 -0.0856095 18.6998 0.181654C18.3685 0.229379 18.1477 0.391646 18.0373 0.668455C17.9269 0.935718 17.9169 1.3557 18.218 1.72796C19.0009 2.70156 21.7411 5.08784 22.4638 5.44101C23.1163 5.72737 23.7486 5.76555 24.6118 5.80373C26.0472 5.87054 28.0246 5.96599 30.1626 7.55048C32.1801 9.02998 34.037 10.9867 35.8438 12.8767C37.4196 14.528 38.9152 16.0934 40.451 17.3056L40.9127 17.6683L41.1235 18.2124C42.0168 20.5223 42.5287 22.9563 41.2138 24.9131C39.8387 26.9557 37.4598 28.2348 34.7196 28.4257C31.1462 28.6738 26.6294 28.5593 23.0059 28.4447C20.0348 28.3493 16.9633 28.2634 14.0926 28.3684L13.6208 28.3875L12.6773 28.0438C12.2557 27.8911 11.8643 27.6525 11.5531 27.3471L0.772884 17.0288C0.602247 16.9238 0.240899 16.8379 0.0501873 16.8665C0.0301124 16.8952 0.0200749 16.9524 0 17.0288L0.220824 23.8726C0.271011 24.2831 0.391461 24.4358 0.602247 24.6649C0.662472 24.7412 0.712659 24.7985 0.762847 24.8558C1.99745 26.4021 8.23072 32.2723 9.77648 33.2459C10.0676 33.4273 10.4289 33.5323 10.8906 33.6755C11.0613 33.7327 11.242 33.7805 11.4327 33.8377C11.7539 33.9427 12.1052 34 12.4464 34H38.0921C39.9591 34 41.816 33.5896 43.402 32.6637C44.757 31.8714 45.821 30.831 46.5939 29.5424C48.491 26.4116 48.5713 17.7924 46.2024 15.0243L46.2125 15.0339Z" fill="#FF4A00"/>
<path d="M11.1516 15.9406C12.4364 17.172 13.7212 18.3269 15.0261 19.3387C15.9094 20.026 17.8165 20.6846 18.9407 20.7132C20.7575 20.7514 22.6947 20.7323 24.5617 20.7132L26.1877 20.6941C26.4688 20.6941 26.7599 20.6941 27.0509 20.7132C27.8439 20.7323 28.8175 20.7609 29.0384 20.4841C29.3897 20.0641 29.209 19.6155 28.9781 19.3196C28.5365 18.766 25.6859 16.0838 25.0736 15.6638C24.5115 15.3011 23.6382 15.2534 22.6144 15.2057C20.9783 15.1102 18.9407 15.0052 17.154 13.4875L16.9232 13.2585C15.6384 11.7981 13.9822 10.3663 12.2256 8.83908L11.2319 7.97047C10.71 7.5123 9.90697 7.53139 9.39506 8.00865L6.23326 10.9867C6.61468 11.3781 6.98607 11.7694 7.35746 12.1512C8.59206 13.4303 9.85678 14.7189 11.1315 15.9502L11.1516 15.9406Z" fill="#FF4A00"/>
</svg>
