<svg width="170" height="36" viewBox="0 0 170 36" fill="none" xmlns="http://www.w3.org/2000/svg">
<path d="M46.03 15.75C44.04 13.33 41.45 10.93 38.93 8.6C36.66 6.5 34.32 4.34 32.3 2.05C32.15 1.88 31.99 1.73 31.81 1.6C30.72 0.82 29.37 0.28 28.18 0.17C26.07 -0.03 20.45 -0.09 18.62 0.19C18.29 0.24 18.07 0.41 17.96 0.7C17.85 0.98 17.84 1.42 18.14 1.81C18.92 2.83 21.65 5.33 22.37 5.7C23.02 6 23.65 6.04 24.51 6.08C25.94 6.15 27.91 6.25 30.04 7.91C32.05 9.46 33.9 11.51 35.7 13.49C37.27 15.22 38.76 16.86 40.29 18.13L40.75 18.51L40.96 19.08C41.85 21.5 42.36 24.05 41.05 26.1C39.68 28.24 37.31 29.58 34.58 29.78C31.02 30.04 26.52 29.92 22.91 29.8C19.95 29.7 16.89 29.61 14.03 29.72L13.56 29.74L12.62 29.38C12.2 29.22 11.81 28.97 11.5 28.65L0.76 17.84C0.59 17.73 0.23 17.64 0.04 17.67C0.02 17.7 0.01 17.76 -0.01 17.84L0.21 25.01C0.26 25.44 0.38 25.6 0.59 25.84C0.65 25.92 0.7 25.98 0.75 26.04C1.98 27.66 8.19 33.81 9.73 34.83C10.02 35.02 10.38 35.13 10.84 35.28C11.01 35.34 11.19 35.39 11.38 35.45C11.7 35.56 12.05 35.62 12.39 35.62H37.94C39.8 35.62 41.65 35.19 43.23 34.22C44.58 33.39 45.64 32.3 46.41 30.95C48.3 27.67 48.38 18.64 46.02 15.74L46.03 15.75Z" fill="#FF4A00"/>
<path d="M11.1 16.7C12.38 17.99 13.66 19.2 14.96 20.26C15.84 20.98 17.74 21.67 18.86 21.7C20.67 21.74 22.6 21.72 24.46 21.7L26.08 21.68C26.36 21.68 26.65 21.68 26.94 21.7C27.73 21.72 28.7 21.75 28.92 21.46C29.27 21.02 29.09 20.55 28.86 20.24C28.42 19.66 25.58 16.85 24.97 16.41C24.41 16.03 23.54 15.98 22.52 15.93C20.89 15.83 18.86 15.72 17.08 14.13L16.85 13.89C15.57 12.36 13.92 10.86 12.17 9.26L11.18 8.35C10.66 7.87 9.86 7.89 9.35 8.39L6.2 11.51C6.58 11.92 6.95 12.33 7.32 12.73C8.55 14.07 9.81 15.42 11.08 16.71L11.1 16.7Z" fill="#FF4A00"/>
<path d="M72.24 0.58C71.63 0.21 70.94 0.02 70.18 0.02H56.87V22.73L70.18 22.69C70.95 22.69 71.63 22.5 72.24 22.13C72.85 21.76 73.33 21.27 73.7 20.66C74.06 20.05 74.24 19.37 74.24 18.63V4.08C74.24 3.33 74.06 2.66 73.7 2.05C73.34 1.44 72.85 0.95 72.24 0.58ZM70.36 18.48C70.36 18.58 70.33 18.66 70.26 18.73C70.19 18.8 70.11 18.83 70.01 18.83H61.09C60.99 18.83 60.91 18.8 60.84 18.73C60.77 18.66 60.74 18.58 60.74 18.48V4.23C60.74 4.13 60.77 4.05 60.84 3.98C60.91 3.91 60.99 3.88 61.09 3.88H70.01C70.11 3.88 70.19 3.91 70.26 3.98C70.33 4.05 70.36 4.13 70.36 4.23V18.48ZM77.96 22.15C78.57 22.52 79.25 22.71 80 22.71H93.32V18.85H80.15C80.05 18.85 79.97 18.82 79.9 18.75C79.83 18.68 79.8 18.6 79.8 18.5V16.11H93.33V9.69C93.33 8.94 93.15 8.27 92.78 7.66C92.42 7.05 91.92 6.56 91.3 6.19C90.68 5.82 90 5.63 89.25 5.63H80.01C79.26 5.63 78.58 5.82 77.97 6.19C77.36 6.56 76.87 7.05 76.49 7.66C76.12 8.27 75.93 8.95 75.93 9.69V18.65C75.93 19.4 76.12 20.07 76.49 20.68C76.86 21.29 77.36 21.78 77.97 22.15H77.96ZM79.79 9.83C79.79 9.73 79.82 9.65 79.89 9.58C79.96 9.51 80.04 9.48 80.14 9.48H89.09C89.19 9.48 89.27 9.51 89.34 9.58C89.41 9.65 89.44 9.73 89.44 9.83V12.63H79.78V9.83H79.79ZM107.93 22.73L117.35 5.65H112.9L106.19 18.05L99.45 5.65H95L104.4 22.73H107.93ZM126.54 22.73V18.87H123.27C123.17 18.87 123.09 18.84 123.02 18.77C122.95 18.7 122.92 18.62 122.92 18.52V0.02H119.03V18.66C119.03 19.41 119.22 20.08 119.59 20.69C119.96 21.3 120.45 21.79 121.06 22.16C121.67 22.53 122.35 22.72 123.09 22.72H126.54V22.73ZM128.22 22.73H132.08V5.65H128.22V22.73ZM128.22 3.94H132.08L128.22 0.05V3.94ZM149.09 6.21C148.47 5.84 147.79 5.65 147.04 5.65H133.76V22.73H137.62V9.86C137.62 9.76 137.65 9.68 137.72 9.61C137.79 9.54 137.87 9.51 137.97 9.51H146.89C146.99 9.51 147.07 9.54 147.14 9.61C147.21 9.68 147.24 9.76 147.24 9.86V22.73H151.1V9.71C151.1 8.96 150.92 8.29 150.56 7.68C150.2 7.07 149.71 6.58 149.09 6.21ZM169.88 5.65H165.76L159.67 12.24H156.64V0.06H152.79V22.71H156.64V16.12H159.67L165.76 22.71H169.85V21.65L163.08 14.18L169.87 6.71V5.65H169.88ZM61.78 30.83L59.31 30.26C58.63 30.11 58.29 29.73 58.29 29.14C58.29 28.67 58.46 28.31 58.8 28.04C59.14 27.77 59.62 27.64 60.23 27.64C61.57 27.64 62.3 28.23 62.41 29.4H63.51C63.46 28.83 63.36 28.39 63.21 28.09C62.74 27.13 61.76 26.64 60.27 26.64C59.31 26.64 58.55 26.87 57.99 27.34C57.43 27.81 57.16 28.45 57.16 29.27C57.16 30.37 57.77 31.06 59 31.34L60.77 31.75C61.59 31.94 62.11 32.16 62.34 32.4C62.52 32.6 62.62 32.87 62.62 33.21C62.62 34.23 61.89 34.74 60.42 34.74C58.85 34.74 58.04 34.07 57.97 32.72H56.87C56.87 33.31 56.97 33.79 57.16 34.15C57.27 34.38 57.42 34.58 57.59 34.76C58.2 35.41 59.1 35.74 60.29 35.74C61.38 35.74 62.23 35.51 62.84 35.05C63.45 34.59 63.75 33.95 63.75 33.13C63.75 31.88 63.1 31.1 61.79 30.8L61.78 30.83ZM72.22 27.65C71.5 26.98 70.56 26.65 69.41 26.65C68.14 26.65 67.12 27.07 66.35 27.9C65.58 28.74 65.19 29.84 65.19 31.2C65.19 32.56 65.58 33.67 66.35 34.5C67.12 35.34 68.14 35.75 69.41 35.75C70.68 35.75 71.71 35.33 72.48 34.49C73.25 33.65 73.63 32.53 73.63 31.12C73.63 30.45 73.5 29.8 73.25 29.17C73 28.55 72.65 28.04 72.22 27.63V27.65ZM71.6 33.76C71.05 34.4 70.32 34.72 69.41 34.72C68.5 34.72 67.77 34.4 67.22 33.76C66.67 33.12 66.39 32.27 66.39 31.21C66.39 30.15 66.67 29.3 67.22 28.66C67.77 28.02 68.5 27.7 69.41 27.7C70.32 27.7 71.05 28.02 71.6 28.67C72.15 29.32 72.43 30.17 72.43 31.23C72.43 32.29 72.15 33.13 71.6 33.77V33.76ZM76.24 26.88H75.07V35.53H80.62V34.49H76.23V26.88H76.24ZM87.71 32.23C87.71 32.99 87.52 33.57 87.13 33.98C86.74 34.39 86.19 34.6 85.47 34.6C84.75 34.6 84.2 34.39 83.82 33.98C83.43 33.57 83.24 32.97 83.24 32.2V26.75H82.07V32.52C82.07 33.47 82.37 34.22 82.97 34.79C83.57 35.35 84.37 35.63 85.37 35.63C86.13 35.63 86.8 35.48 87.37 35.18C87.73 35 88.06 34.68 88.35 34.23C88.7 33.68 88.88 33.06 88.88 32.36V26.75H87.71V32.23ZM90.33 27.91H93.26V35.52H94.43V27.91H97.36V26.87H90.34V27.91H90.33ZM98.8 27.91H99.67V34.49H98.8V35.53H101.7V34.49H100.83V27.91H101.7V26.87H98.8V27.91ZM110.17 27.65C109.45 26.98 108.51 26.65 107.36 26.65C106.09 26.65 105.07 27.07 104.3 27.9C103.53 28.74 103.14 29.84 103.14 31.2C103.14 32.56 103.53 33.67 104.3 34.5C105.07 35.34 106.09 35.75 107.36 35.75C108.63 35.75 109.66 35.33 110.43 34.49C111.2 33.65 111.58 32.53 111.58 31.12C111.58 30.45 111.45 29.8 111.2 29.17C110.95 28.55 110.6 28.04 110.17 27.63V27.65ZM109.55 33.76C109 34.4 108.27 34.72 107.36 34.72C106.45 34.72 105.72 34.4 105.17 33.76C104.62 33.12 104.34 32.27 104.34 31.21C104.34 30.15 104.62 29.3 105.17 28.66C105.72 28.02 106.45 27.7 107.36 27.7C108.27 27.7 109 28.02 109.55 28.67C110.1 29.32 110.38 30.17 110.38 31.23C110.38 32.29 110.1 33.13 109.55 33.77V33.76ZM118.76 33.86L114.42 26.87H113.03V35.52H114.16V28.53L118.58 35.52H119.9V26.87H118.77V33.86H118.76ZM126.26 30.83L123.79 30.26C123.11 30.11 122.77 29.73 122.77 29.14C122.77 28.67 122.94 28.31 123.28 28.04C123.62 27.77 124.1 27.64 124.71 27.64C126.05 27.64 126.78 28.23 126.89 29.4H127.99C127.94 28.83 127.84 28.39 127.69 28.09C127.22 27.13 126.24 26.64 124.75 26.64C123.79 26.64 123.03 26.87 122.47 27.34C121.91 27.81 121.64 28.45 121.64 29.27C121.64 30.37 122.25 31.06 123.48 31.34L125.25 31.75C126.07 31.94 126.59 32.16 126.82 32.4C127 32.6 127.1 32.87 127.1 33.21C127.1 34.23 126.37 34.74 124.9 34.74C123.33 34.74 122.52 34.07 122.45 32.72H121.35C121.35 33.31 121.45 33.79 121.64 34.15C121.75 34.38 121.9 34.58 122.07 34.76C122.68 35.41 123.58 35.74 124.77 35.74C125.86 35.74 126.71 35.51 127.32 35.05C127.93 34.59 128.23 33.95 128.23 33.13C128.23 31.88 127.58 31.1 126.27 30.8L126.26 30.83Z" fill="black"/>
</svg>
