<svg width="2941" height="2849" viewBox="0 0 2941 2849" fill="none" xmlns="http://www.w3.org/2000/svg">
<path d="M2940.38 1131.76C2940.38 1131.76 2962.18 -12.72 1342.03 0.94004C1027.62 3.59004 689.29 4.93004 388.87 101.44C276.44 137.56 184.89 218.78 176.91 329.42C166.69 470.93 240.4 607.44 223.19 748.35C179.6 1105.32 -408.89 2070.44 528.33 2526.57C1465.55 2982.69 2969.45 2374.53 2940.39 1131.76H2940.38Z" fill="#F4F7FA"/>
<path d="M1103.33 516.53C1115.75 522.84 1131.36 517.05 1138.19 503.6C1145.02 490.15 1140.48 474.13 1128.06 467.83C1127.42 467.5 1126.76 467.23 1126.1 466.97C1128.41 459.53 1130.15 452.03 1131.31 444.52C1132.02 444.52 1132.74 444.51 1133.46 444.44C1147.63 443.18 1158.88 430.15 1158.58 415.35C1158.28 400.55 1146.55 389.57 1132.38 390.84C1131.64 390.91 1130.91 391.02 1130.19 391.15C1128.71 383.81 1126.68 376.65 1124.12 369.71C1124.77 369.33 1125.42 368.93 1126.05 368.49C1138.17 360 1142.05 343.23 1134.71 331.04C1127.37 318.85 1111.58 315.86 1099.46 324.35C1098.84 324.79 1098.25 325.26 1097.68 325.73C1092.89 320.44 1087.64 315.53 1081.96 311.05C1082.36 310.39 1082.75 309.73 1083.1 309.03C1089.93 295.58 1098.85 280.89 1086.33 274.78C1057.37 260.64 1044.94 272.74 1038.11 286.2C1037.76 286.9 1037.45 287.6 1037.16 288.31C1030.19 286.36 1023.13 285.02 1016.03 284.28C1016.07 283.53 1016.11 282.78 1016.09 282.02C1015.79 267.22 1020.18 259.21 1005.96 258.93C974.94 258.33 964.47 271.79 964.77 286.59C964.79 287.36 964.85 288.12 964.93 288.87C957.82 290.9 950.84 293.49 944.04 296.62C943.72 295.96 943.38 295.3 943 294.67C935.66 282.48 919.88 279.49 907.75 287.99C895.63 296.48 891.75 313.25 899.09 325.44C899.47 326.06 899.88 326.65 900.3 327.22C894.93 332.59 889.9 338.42 885.26 344.68C884.66 344.3 884.05 343.93 883.41 343.61C870.99 337.3 855.38 343.09 848.55 356.54C841.72 369.99 846.26 386.01 858.68 392.31C859.32 392.64 859.98 392.91 860.64 393.17C858.33 400.61 856.59 408.11 855.43 415.62C854.72 415.62 854 415.63 853.28 415.7C839.11 416.96 827.86 429.99 828.16 444.79C828.46 459.59 840.19 470.57 854.36 469.3C855.1 469.23 855.83 469.12 856.55 468.99C858.03 476.33 860.06 483.49 862.62 490.43C861.97 490.81 861.32 491.21 860.69 491.65C848.57 500.14 844.69 516.91 852.03 529.1C859.37 541.29 883.68 546.95 895.81 538.45C896.43 538.01 888.49 534.88 889.07 534.4C893.86 539.69 899.11 544.6 904.79 549.08C904.39 549.74 904 550.4 903.65 551.1C896.82 564.55 901.36 580.57 913.78 586.87C926.2 593.18 941.81 587.39 948.64 573.94C948.99 573.24 949.3 572.54 949.59 571.83C956.56 573.78 963.62 575.12 970.72 575.86C970.68 576.61 970.64 577.36 970.66 578.12C970.96 592.92 982.69 603.9 996.86 602.63C1011.03 601.37 1022.28 588.34 1021.98 573.54C1021.96 572.77 1021.9 572.01 1021.82 571.26C1028.93 569.23 1035.91 566.64 1042.71 563.51C1043.03 564.17 1043.37 564.83 1043.75 565.46C1051.09 577.65 1066.87 580.64 1079 572.15C1091.13 563.66 1095 546.89 1087.66 534.7C1087.28 534.08 1086.87 533.49 1086.45 532.92C1091.82 527.55 1096.85 521.72 1101.49 515.46C1102.09 515.84 1102.7 516.21 1103.34 516.53H1103.33ZM948.49 518.5C903.39 495.6 886.93 437.45 911.72 388.62C936.51 339.78 993.18 318.76 1038.28 341.66C1083.38 364.56 1099.84 422.71 1075.05 471.54C1050.26 520.37 993.59 541.4 948.49 518.5Z" fill="url(#paint0_linear_7_22)"/>
<path d="M1133.47 444.43C1147.64 443.17 1158.89 430.14 1158.59 415.34C1158.29 400.54 1146.56 389.56 1132.39 390.83C1131.65 390.9 1130.92 391.01 1130.2 391.14C1128.72 383.8 1126.69 376.64 1124.13 369.7C1124.78 369.32 1125.43 368.92 1126.06 368.48C1138.18 359.99 1153.18 339.46 1144.63 328.09C1128.39 306.51 1111.59 315.85 1099.47 324.35C1098.85 324.79 1098.26 325.26 1097.69 325.73C1092.9 320.44 1087.65 315.53 1081.97 311.05C1082.37 310.39 1082.76 309.73 1083.11 309.04C1086.83 301.72 1087.15 293.65 1084.7 286.79C1072.99 307.4 1061.44 328.1 1050.09 348.91C1086.07 375.28 1097.52 427.23 1075.03 471.53C1055.97 509.07 1018.09 530.14 981.1 527.5C979.45 531.78 977.83 536.08 976.06 540.32C971.27 551.82 965.82 563.09 960.36 574.33C963.79 574.98 967.24 575.49 970.69 575.85C970.65 576.6 970.61 577.35 970.63 578.11C970.93 592.91 979.91 605.49 1005.6 604.12C1019.81 603.37 1022.25 588.33 1021.95 573.53C1021.93 572.76 1021.87 572 1021.79 571.25C1028.9 569.22 1035.88 566.63 1042.68 563.5C1043 564.16 1043.34 564.82 1043.72 565.45C1051.06 577.64 1076.54 582.82 1088.66 574.32C1100.78 565.82 1094.97 546.87 1087.63 534.69C1087.25 534.07 1086.84 533.48 1086.42 532.91C1091.79 527.54 1096.82 521.71 1101.46 515.45C1102.06 515.83 1102.67 516.2 1103.31 516.52C1115.73 522.83 1131.34 517.04 1138.17 503.59C1145 490.14 1140.46 474.12 1128.04 467.82C1127.4 467.49 1126.74 467.22 1126.08 466.96C1128.39 459.52 1130.13 452.02 1131.29 444.51C1132 444.51 1132.72 444.5 1133.44 444.43H1133.47Z" fill="url(#paint1_linear_7_22)"/>
<path d="M1116.69 518.05C1129.11 524.36 1144.72 518.57 1151.55 505.12C1158.38 491.67 1153.85 475.65 1141.42 469.35C1140.78 469.02 1140.12 468.75 1139.46 468.49C1141.77 461.05 1143.51 453.55 1144.67 446.04C1145.38 446.04 1146.1 446.03 1146.82 445.96C1160.99 444.7 1172.24 431.67 1171.94 416.87C1171.64 402.07 1159.91 391.09 1145.74 392.36C1145 392.43 1144.27 392.54 1143.55 392.67C1142.07 385.33 1140.04 378.17 1137.48 371.23C1138.13 370.85 1138.78 370.45 1139.41 370.01C1151.53 361.52 1155.41 344.75 1148.07 332.56C1140.73 320.37 1124.95 317.38 1112.82 325.87C1112.2 326.31 1111.61 326.78 1111.04 327.25C1106.25 321.96 1101 317.05 1095.32 312.57C1095.72 311.91 1096.11 311.25 1096.46 310.55C1103.29 297.1 1098.76 281.08 1086.33 274.78C1073.91 268.47 1058.3 274.26 1051.47 287.71C1051.12 288.41 1050.81 289.11 1050.52 289.82C1043.55 287.87 1036.49 286.53 1029.39 285.79C1029.43 285.04 1029.47 284.29 1029.45 283.53C1029.15 268.73 1017.42 257.75 1003.25 259.02C989.08 260.28 977.83 273.31 978.13 288.11C978.15 288.88 978.21 289.64 978.29 290.39C971.18 292.42 964.2 295.01 957.4 298.14C957.08 297.48 956.74 296.82 956.36 296.19C949.02 284 933.23 281.01 921.11 289.51C908.98 298.01 905.11 314.77 912.45 326.96C912.83 327.58 913.24 328.17 913.66 328.74C908.29 334.11 903.26 339.94 898.62 346.2C898.02 345.82 897.41 345.45 896.77 345.13C884.35 338.82 868.74 344.61 861.91 358.06C855.08 371.51 859.61 387.53 872.04 393.83C872.68 394.16 873.34 394.43 874 394.69C871.69 402.13 869.95 409.63 868.79 417.14C868.08 417.14 867.36 417.15 866.64 417.22C852.47 418.48 841.22 431.51 841.52 446.31C841.82 461.11 853.55 472.09 867.72 470.82C868.46 470.75 869.19 470.64 869.91 470.51C871.39 477.85 873.42 485.01 875.98 491.95C875.33 492.33 874.68 492.73 874.05 493.17C861.93 501.66 858.05 518.43 865.39 530.62C872.73 542.81 888.52 545.8 900.64 537.31C901.26 536.87 901.85 536.4 902.42 535.93C907.21 541.22 912.46 546.13 918.14 550.61C917.74 551.27 917.35 551.93 917 552.63C910.17 566.08 914.7 582.1 927.13 588.4C939.55 594.71 955.16 588.92 961.99 575.47C962.34 574.77 962.65 574.07 962.94 573.36C969.91 575.31 976.97 576.65 984.07 577.39C984.03 578.14 983.99 578.89 984.01 579.65C984.31 594.45 996.04 605.43 1010.21 604.16C1024.38 602.9 1035.63 589.87 1035.33 575.07C1035.31 574.3 1035.25 573.54 1035.17 572.79C1042.28 570.76 1049.26 568.17 1056.06 565.04C1056.38 565.7 1056.72 566.36 1057.1 566.99C1064.44 579.18 1080.22 582.17 1092.35 573.68C1104.47 565.18 1108.35 548.42 1101.01 536.23C1100.63 535.61 1100.22 535.02 1099.8 534.45C1105.17 529.08 1110.2 523.25 1114.85 516.99C1115.45 517.37 1116.06 517.73 1116.7 518.06L1116.69 518.05ZM961.85 520.02C916.75 497.12 900.29 438.97 925.08 390.14C949.87 341.31 1006.53 320.28 1051.64 343.18C1096.74 366.08 1113.2 424.23 1088.41 473.06C1063.62 521.9 1006.95 542.92 961.85 520.02Z" fill="url(#paint2_linear_7_22)"/>
<path d="M772.15 1053.22C796.48 1065.57 827.05 1054.23 840.43 1027.88C853.81 1001.53 844.93 970.16 820.59 957.8C819.33 957.16 818.04 956.62 816.75 956.11C821.27 941.53 824.68 926.84 826.97 912.14C828.36 912.14 829.76 912.11 831.19 911.99C858.95 909.51 880.98 884.01 880.4 855.01C879.82 826.01 856.84 804.52 829.08 806.99C827.63 807.12 826.2 807.35 824.79 807.6C821.89 793.23 817.92 779.19 812.9 765.61C814.18 764.86 815.45 764.09 816.69 763.22C840.44 746.58 848.04 713.74 833.65 689.87C819.27 666 788.35 660.13 764.6 676.77C763.38 677.62 762.24 678.54 761.11 679.48C751.73 669.11 741.44 659.5 730.31 650.73C731.09 649.45 731.86 648.15 732.55 646.78C745.93 620.43 763.41 591.65 738.88 579.68C682.15 551.99 657.81 575.69 644.43 602.04C643.74 603.4 643.14 604.79 642.57 606.18C628.92 602.37 615.09 599.73 601.18 598.28C601.27 596.82 601.33 595.35 601.31 593.86C600.73 564.87 609.33 549.18 581.46 548.63C520.69 547.45 500.19 573.82 500.77 602.82C500.8 604.34 500.93 605.82 501.08 607.29C487.15 611.26 473.48 616.33 460.17 622.47C459.54 621.18 458.88 619.89 458.13 618.64C443.75 594.77 412.83 588.9 389.08 605.55C365.33 622.19 357.74 655.03 372.12 678.9C372.86 680.12 373.66 681.27 374.48 682.4C363.96 692.92 354.11 704.34 345.01 716.59C343.83 715.85 342.64 715.13 341.38 714.49C317.05 702.14 286.48 713.48 273.1 739.83C259.72 766.18 268.6 797.55 292.94 809.91C294.2 810.55 295.49 811.09 296.78 811.6C292.26 826.18 288.85 840.87 286.56 855.57C285.17 855.57 283.77 855.6 282.34 855.72C254.58 858.2 232.54 883.71 233.13 912.7C233.71 941.69 256.69 963.19 284.45 960.72C285.9 960.59 287.33 960.36 288.74 960.11C291.64 974.48 295.61 988.52 300.63 1002.1C299.35 1002.85 298.08 1003.62 296.84 1004.49C273.09 1021.13 265.5 1053.97 279.88 1077.85C294.26 1101.72 341.89 1112.81 365.64 1096.17C366.86 1095.32 351.3 1089.17 352.43 1088.23C361.81 1098.6 372.1 1108.21 383.23 1116.98C382.45 1118.26 381.68 1119.56 380.99 1120.93C367.61 1147.28 376.49 1178.65 400.83 1191.01C425.16 1203.36 455.73 1192.02 469.11 1165.67C469.8 1164.31 470.4 1162.92 470.97 1161.53C484.62 1165.34 498.45 1167.98 512.36 1169.43C512.27 1170.89 512.21 1172.36 512.24 1173.85C512.82 1202.84 535.8 1224.34 563.56 1221.87C591.32 1219.4 613.36 1193.88 612.77 1164.89C612.74 1163.37 612.61 1161.89 612.46 1160.42C626.39 1156.45 640.06 1151.38 653.37 1145.24C654 1146.53 654.66 1147.82 655.41 1149.07C669.79 1172.94 700.71 1178.81 724.46 1162.17C748.21 1145.53 755.8 1112.69 741.42 1088.81C740.68 1087.59 739.88 1086.44 739.06 1085.32C749.58 1074.8 759.43 1063.38 768.53 1051.13C769.71 1051.87 770.9 1052.59 772.16 1053.23L772.15 1053.22ZM468.82 1057.07C380.47 1012.21 348.23 898.3 396.8 802.64C445.37 706.98 556.36 665.79 644.71 710.65C733.06 755.51 765.3 869.42 716.73 965.08C668.16 1060.74 557.17 1101.93 468.82 1057.07Z" fill="url(#paint3_linear_7_22)"/>
<path d="M831.19 911.99C858.95 909.51 880.98 884 880.4 855.01C879.82 826.02 856.84 804.52 829.08 806.99C827.63 807.12 826.2 807.35 824.79 807.6C821.89 793.23 817.92 779.2 812.9 765.61C814.18 764.86 815.45 764.09 816.69 763.22C840.44 746.58 869.83 706.37 853.07 684.1C821.27 641.83 788.35 660.13 764.6 676.77C763.38 677.62 762.24 678.54 761.11 679.48C751.73 669.11 741.44 659.5 730.31 650.73C731.09 649.45 731.86 648.15 732.55 646.78C739.83 632.44 740.47 616.63 735.66 603.19C712.72 643.57 690.09 684.11 667.86 724.88C738.34 776.53 760.78 878.3 716.72 965.08C679.39 1038.61 605.18 1079.9 532.72 1074.72C529.49 1083.1 526.31 1091.53 522.85 1099.83C513.46 1122.36 502.79 1144.42 492.1 1166.46C498.82 1167.73 505.57 1168.72 512.34 1169.43C512.25 1170.9 512.19 1172.36 512.22 1173.85C512.8 1202.84 530.41 1227.48 580.72 1224.81C608.55 1223.33 613.34 1193.88 612.75 1164.89C612.72 1163.38 612.59 1161.89 612.44 1160.42C626.37 1156.45 640.04 1151.38 653.35 1145.24C653.98 1146.53 654.64 1147.82 655.39 1149.07C669.77 1172.94 719.67 1183.09 743.43 1166.45C767.19 1149.81 755.79 1112.69 741.41 1088.81C740.67 1087.59 739.87 1086.44 739.05 1085.31C749.57 1074.79 759.42 1063.37 768.52 1051.12C769.7 1051.86 770.89 1052.58 772.15 1053.22C796.48 1065.58 827.05 1054.23 840.43 1027.88C853.81 1001.53 844.93 970.16 820.59 957.81C819.33 957.17 818.04 956.63 816.75 956.12C821.27 941.54 824.68 926.85 826.97 912.15C828.36 912.15 829.76 912.12 831.19 912V911.99Z" fill="url(#paint4_linear_7_22)"/>
<path d="M798.32 1056.19C822.65 1068.54 853.22 1057.2 866.6 1030.85C879.98 1004.5 871.1 973.13 846.76 960.77C845.5 960.13 844.21 959.59 842.92 959.08C847.44 944.5 850.85 929.81 853.13 915.11C854.53 915.11 855.92 915.08 857.35 914.96C885.11 912.49 907.14 886.98 906.56 857.98C905.98 828.98 883 807.49 855.24 809.96C853.79 810.09 852.36 810.32 850.95 810.57C848.05 796.2 844.08 782.16 839.06 768.58C840.34 767.83 841.61 767.06 842.85 766.19C866.6 749.55 874.19 716.71 859.81 692.83C845.43 668.96 814.51 663.09 790.76 679.73C789.54 680.58 788.4 681.5 787.27 682.44C777.89 672.07 767.6 662.46 756.47 653.69C757.25 652.41 758.02 651.11 758.71 649.74C772.09 623.39 763.21 592.02 738.87 579.66C714.54 567.31 683.97 578.65 670.59 605C669.9 606.36 669.3 607.75 668.73 609.14C655.08 605.33 641.25 602.69 627.34 601.24C627.43 599.77 627.49 598.31 627.46 596.82C626.88 567.83 603.9 546.33 576.14 548.8C548.38 551.27 526.34 576.79 526.93 605.78C526.96 607.3 527.09 608.78 527.24 610.25C513.31 614.22 499.64 619.29 486.33 625.43C485.7 624.14 485.04 622.85 484.29 621.6C469.91 597.73 438.99 591.86 415.24 608.51C391.49 625.15 383.9 657.99 398.28 681.87C399.02 683.09 399.82 684.24 400.64 685.37C390.12 695.89 380.27 707.31 371.17 719.56C369.99 718.82 368.8 718.1 367.54 717.46C343.21 705.11 312.64 716.45 299.26 742.8C285.88 769.15 294.76 800.52 319.1 812.88C320.36 813.52 321.65 814.06 322.94 814.57C318.42 829.15 315.01 843.84 312.72 858.54C311.33 858.54 309.93 858.57 308.5 858.69C280.74 861.17 258.7 886.68 259.29 915.67C259.87 944.66 282.85 966.16 310.61 963.69C312.06 963.56 313.49 963.33 314.9 963.08C317.8 977.45 321.77 991.49 326.79 1005.07C325.51 1005.82 324.24 1006.59 323 1007.46C299.25 1024.1 291.66 1056.94 306.04 1080.81C320.42 1104.68 351.34 1110.55 375.09 1093.91C376.31 1093.06 377.45 1092.14 378.58 1091.2C387.96 1101.57 398.25 1111.18 409.38 1119.95C408.6 1121.23 407.83 1122.53 407.14 1123.9C393.76 1150.25 402.64 1181.62 426.98 1193.98C451.31 1206.33 481.88 1194.99 495.26 1168.64C495.95 1167.28 496.55 1165.89 497.12 1164.5C510.77 1168.31 524.6 1170.95 538.51 1172.4C538.42 1173.86 538.36 1175.33 538.39 1176.82C538.97 1205.81 561.95 1227.31 589.71 1224.84C617.47 1222.37 639.51 1196.85 638.92 1167.86C638.89 1166.34 638.76 1164.86 638.61 1163.39C652.54 1159.42 666.21 1154.35 679.52 1148.21C680.15 1149.5 680.81 1150.79 681.56 1152.04C695.94 1175.91 726.86 1181.78 750.61 1165.14C774.36 1148.5 781.95 1115.66 767.57 1091.78C766.83 1090.56 766.03 1089.41 765.21 1088.29C775.73 1077.77 785.58 1066.35 794.68 1054.1C795.86 1054.84 797.05 1055.56 798.31 1056.2L798.32 1056.19ZM494.99 1060.04C406.64 1015.18 374.4 901.27 422.97 805.61C471.54 709.95 582.53 668.76 670.88 713.62C759.23 758.48 791.47 872.39 742.9 968.05C694.33 1063.71 583.34 1104.9 494.99 1060.04Z" fill="url(#paint5_linear_7_22)"/>
<path d="M2656.07 1534.26L2595.93 1128.26L2461.5 1141.78C2450.16 1139.67 2428.59 1151.47 2423.49 1163.37L2246.95 1574.73C2241.48 1587.49 2249.87 1602.13 2262.58 1602.05L2312.99 1599.93V2558.78C2312.99 2575.86 2325.4 2588.13 2340.66 2586.18L2461.5 2613.04C2475.95 2611.17 2611.27 2538.27 2611.27 2521.8V1560.63L2641.83 1560.47C2653.42 1560.41 2661.03 1546.38 2656.07 1534.26Z" fill="url(#paint6_linear_7_22)"/>
<path style="mix-blend-mode:multiply" opacity="0.3" d="M2446.33 1595.62L2312.99 1599.94V2558.79C2312.99 2575.87 2325.4 2588.14 2340.66 2586.19L2461.5 2613.05C2467.45 2612.28 2493.96 2599.43 2523.04 2583.46L2446.33 1595.63V1595.62Z" fill="url(#paint7_linear_7_22)"/>
<path d="M2771.45 1593.53L2740.59 1593.71V2550.36C2740.59 2566.74 2729.71 2581.53 2715.54 2583.34L2473.45 2614.69C2458.34 2616.65 2446.34 2604.45 2446.34 2587.45V1595.6L2413.55 1595.82C2400.98 1595.93 2392.65 1581.36 2398.07 1568.65L2581.95 1137.17C2587.87 1123.29 2605.56 1124.17 2611.45 1138.62L2785.88 1567.41C2790.78 1579.47 2782.93 1593.46 2771.45 1593.53Z" fill="url(#paint8_linear_7_22)"/>
<path d="M2074.05 2665.67L1947.8 2636.34C1931.91 2638.37 1918.99 2626.24 1918.99 2609.25V1826.01C1918.99 1809.02 1931.91 1794.86 1947.8 1794.4L2218.51 1786.44C2233.38 1786 2359.28 1793.13 2359.28 1793.13L2245.39 2568.72C2245.39 2585.08 2074.05 2665.67 2074.05 2665.67Z" fill="url(#paint9_linear_7_22)"/>
<path d="M2380.96 1821.11V2597.44C2380.96 2601.98 2379.22 2606.41 2377.54 2610.48C2373.29 2620.94 2363.77 2629.01 2353.13 2630.35L2085.63 2665.01C2069.86 2667.04 2057.66 2655.02 2057.66 2638.09V1831.87C2057.66 1814.98 2069.67 1800.88 2085.43 1800.41L2143.67 1798.67L2353.73 1792.46C2368.48 1791.99 2380.96 1804.85 2380.96 1821.12V1821.11Z" fill="url(#paint10_linear_7_22)"/>
<path d="M1651.02 2720.6L1517.88 2691.24C1500.39 2693.47 1486.17 2680.84 1486.17 2663.01L1490.19 2114.19C1490.19 2096.36 1504.41 2081.06 1521.9 2080.02L1819.31 2062.28C1835.62 2061.31 1972.44 2080.15 1972.44 2080.15L1844.87 2618.47C1844.87 2635.61 1667.53 2718.48 1651.02 2720.61V2720.6Z" fill="url(#paint11_linear_7_22)"/>
<path d="M1981.37 2103V2647.31C1981.37 2664.38 1968.98 2679.89 1952.82 2681.97L1659.3 2720.08C1642.01 2722.33 1629 2709.76 1629 2692.04V2125.71C1629 2107.95 1642.33 2092.73 1659.62 2091.67L1750.53 2086.15L1953 2073.91C1969.17 2072.93 1981.36 2085.97 1981.36 2103.01L1981.37 2103Z" fill="url(#paint12_linear_7_22)"/>
<path d="M1168.18 2776.59L1043.57 2751.79C1024.23 2754.26 1008.49 2741.07 1008.49 2722.31V2437.13C1008.49 2418.38 1024.23 2401.76 1043.57 2400.02L1372.02 2370.45C1390 2368.83 1514.45 2383.4 1514.45 2383.4L1404.52 2673.13C1404.52 2691.12 1186.41 2774.23 1168.17 2776.58L1168.18 2776.59Z" fill="url(#paint13_linear_7_22)"/>
<path d="M1545.46 2412.9V2702.2C1545.46 2707.79 1544.62 2713.24 1542.15 2718.15C1536.7 2728.94 1526.39 2737.18 1514.14 2738.75L1501.64 2740.35L1188.4 2780.82C1169.26 2783.29 1153.13 2770.18 1153.13 2751.5V2449.92C1153.13 2431.25 1169.4 2414.72 1188.55 2412.98L1230.18 2409.2L1290.59 2403.71L1513.67 2383.4C1531.47 2381.8 1545.46 2394.99 1545.46 2412.9Z" fill="url(#paint14_linear_7_22)"/>
<path d="M882.13 2540.9L517.62 2578.53C502.06 2580.14 488.63 2589.94 482.38 2602.72C479.99 2607.6 478.61 2612.91 478.61 2618.37V2775.08C478.61 2794.86 495.35 2811.06 517.62 2818.95L646.42 2844.55C666.65 2841.94 918.13 2752.47 918.13 2733.54L978.54 2660.87L1039.68 2557.33C1039.68 2557.33 902.04 2538.83 882.13 2540.89V2540.9Z" fill="url(#paint15_linear_7_22)"/>
<path d="M1065.95 2588.79V2762.76C1065.95 2781.61 1049.59 2798.94 1029.86 2801.48L951.13 2811.61L668.71 2848.12C647.42 2850.88 630.04 2837.19 630.04 2817.5V2635.72C630.04 2616.07 647.31 2598.3 668.6 2596.05L724.01 2590.27L1029.88 2558.41C1049.61 2556.34 1065.96 2569.96 1065.96 2588.78L1065.95 2588.79Z" fill="url(#paint16_linear_7_22)"/>
<path style="mix-blend-mode:multiply" opacity="0.3" d="M2740.59 2386.82V2550.36C2740.59 2566.74 2729.71 2581.53 2715.54 2583.34L2473.45 2614.69C2458.34 2616.65 2446.34 2604.45 2446.34 2587.45V1597.27C2486.3 1599.41 2568.84 1666.02 2542 1878.28C2505.27 2168.89 2506.31 2183.43 2552.3 2231.85C2581.07 2262.15 2693.36 2296.22 2740.59 2386.82Z" fill="url(#paint17_linear_7_22)"/>
<path style="mix-blend-mode:multiply" opacity="0.3" d="M2376.75 2610.48C2372.5 2620.94 2363.38 2629.01 2352.74 2630.35L2085.43 2665.01C2069.66 2667.04 2057.66 2655.02 2057.66 2638.09V1831.87C2057.66 1814.98 2069.67 1800.88 2085.43 1800.41L2143.67 1798.67C2188.43 1832.27 2201.93 1880.58 2182.08 1942.16C2111.24 2161.93 2121.95 2285.15 2167.94 2333.57C2207.06 2374.73 2400.07 2422.9 2376.75 2610.48Z" fill="url(#paint18_linear_7_22)"/>
<path style="mix-blend-mode:multiply" opacity="0.3" d="M1981.37 2600.82V2647.32C1981.37 2664.39 1968.98 2679.9 1952.82 2681.98L1659.3 2720.09C1642.01 2722.34 1629 2709.77 1629 2692.05V2125.72C1629 2107.96 1642.33 2092.74 1659.62 2091.68L1750.53 2086.16C1849.38 2159.21 1662.9 2340.84 1781.57 2493.41C1863.35 2598.55 1945.04 2491.12 1981.36 2600.83L1981.37 2600.82Z" fill="url(#paint19_linear_7_22)"/>
<path style="mix-blend-mode:multiply" opacity="0.3" d="M1501.65 2740.35L1188.41 2780.82C1169.27 2783.29 1153.14 2770.18 1153.14 2751.5V2449.92C1153.14 2431.25 1169.41 2414.72 1188.56 2412.98L1230.19 2409.2C1238.18 2449.49 1253.58 2471.24 1274.14 2492.9C1312.57 2533.33 1488.68 2580.01 1501.65 2740.35Z" fill="url(#paint20_linear_7_22)"/>
<path style="mix-blend-mode:multiply" opacity="0.3" d="M950.91 2811.62L668.6 2848.13C647.31 2850.89 630.04 2837.2 630.04 2817.51V2635.73C630.04 2616.08 647.31 2598.31 668.6 2596.06L724.01 2590.28C730.62 2601.58 738.49 2611.06 747.5 2620.54C779.83 2654.54 917.27 2693.37 950.91 2811.62Z" fill="url(#paint21_linear_7_22)"/>
<path d="M1642.37 1781.24C1642.37 1781.24 1880.06 2048.51 1677.33 2477.9C1658.45 2517.9 1603.11 2522.03 1578.3 2485.41L1420.25 2252.14C1394.91 2214.74 1386.54 2168.39 1397.19 2124.49L1451.9 1899.11L1642.36 1781.24H1642.37Z" fill="url(#paint22_linear_7_22)"/>
<path d="M1111.31 1360.43C1111.31 1360.43 796.78 1190.13 425.11 1485.65C390.49 1513.18 399.11 1567.99 440.43 1583.77L703.65 1684.31C745.85 1700.43 792.89 1697.98 833.19 1677.57L1040.1 1572.79L1111.31 1360.43Z" fill="url(#paint23_linear_7_22)"/>
<path d="M1665.86 1751.59C1665.86 1751.59 1903.55 2018.86 1700.82 2448.25C1681.94 2488.25 1626.6 2492.38 1601.79 2455.76L1443.74 2222.49C1418.4 2185.09 1410.03 2138.74 1420.68 2094.84L1475.39 1869.46L1665.85 1751.59H1665.86Z" fill="url(#paint24_linear_7_22)"/>
<path d="M1134.8 1330.79C1134.8 1330.79 820.27 1160.49 448.6 1456.01C413.98 1483.54 422.6 1538.35 463.92 1554.13L727.14 1654.67C769.34 1670.79 816.38 1668.34 856.68 1647.93L1063.59 1543.15L1134.8 1330.79Z" fill="url(#paint25_linear_7_22)"/>
<path d="M1383.27 658.16C1717 321.3 2269.66 443.05 2269.96 443.72C2270.68 443.85 2515.52 954.08 2263.89 1355.95C2035.65 1720.47 1528.24 1985.21 1430.77 2033.7C1420.28 2038.92 1403.27 2046.06 1397.04 2036.14C1275.93 1843.27 1113.57 1721.37 918.6 1657.24C907.81 1653.69 911.19 1635.79 913.79 1624.73C938.34 1520.19 1080.04 964.24 1383.28 658.16H1383.27Z" fill="url(#paint26_linear_7_22)"/>
<g style="mix-blend-mode:multiply" opacity="0.3">
<path d="M1598.16 1167.69C1784.91 980.73 1960 1057.44 2140.37 894.53C2206.23 835.05 2278.28 738.65 2318.81 572.08C2374.67 749.28 2437.64 1078.44 2263.88 1355.94C2035.64 1720.46 1528.23 1985.2 1430.76 2033.69C1420.27 2038.91 1403.26 2046.05 1397.03 2036.13C1335.85 1938.69 1264.12 1859.4 1183 1796.48C1253.22 1754.8 1303.64 1708.18 1340.91 1663.62C1491.23 1483.93 1428 1338.02 1598.16 1167.68V1167.69Z" fill="url(#paint27_linear_7_22)"/>
</g>
<path d="M2049.72 721.66C1921.22 619.83 1762.98 527.63 1621.42 498.65C1888.8 385.26 2180.79 427.01 2253.08 440.28C2263.78 442.25 2272.8 449.39 2277.16 459.36C2306.61 526.7 2413.98 801.42 2364.73 1087.63C2314.07 970.33 2178.23 823.48 2049.73 721.65L2049.72 721.66Z" fill="url(#paint28_linear_7_22)"/>
<path style="mix-blend-mode:multiply" opacity="0.3" d="M2318.81 572.1C2319.07 572.93 2319.33 573.76 2319.59 574.59C2320.03 576 2320.48 577.42 2320.92 578.86C2321.36 580.29 2321.8 581.73 2322.25 583.18C2322.67 584.55 2323.09 585.93 2323.51 587.32C2323.97 588.85 2324.44 590.4 2324.9 591.96C2325.3 593.29 2325.69 594.63 2326.09 595.97C2326.57 597.61 2327.06 599.27 2327.54 600.93C2327.92 602.22 2328.29 603.52 2328.67 604.83C2329.17 606.58 2329.67 608.34 2330.17 610.11C2330.53 611.36 2330.88 612.62 2331.23 613.89C2331.75 615.74 2332.27 617.61 2332.78 619.49C2333.11 620.7 2333.45 621.92 2333.78 623.14C2334.31 625.09 2334.84 627.06 2335.37 629.03C2335.69 630.22 2336.01 631.41 2336.32 632.61C2336.86 634.64 2337.39 636.69 2337.92 638.74C2338.22 639.9 2338.52 641.07 2338.82 642.24C2339.37 644.37 2339.91 646.51 2340.45 648.67C2340.73 649.79 2341.01 650.92 2341.3 652.05C2341.85 654.27 2342.4 656.5 2342.94 658.74C2343.21 659.84 2343.47 660.94 2343.74 662.04C2344.29 664.35 2344.84 666.67 2345.39 669C2345.64 670.06 2345.89 671.13 2346.13 672.19C2346.68 674.58 2347.23 676.99 2347.78 679.41C2348.01 680.45 2348.25 681.49 2348.48 682.54C2349.03 685.01 2349.58 687.49 2350.12 689.99C2350.34 691 2350.56 692.02 2350.78 693.04C2351.33 695.58 2351.87 698.14 2352.4 700.71C2352.61 701.71 2352.81 702.71 2353.02 703.71C2353.56 706.33 2354.09 708.97 2354.62 711.62C2354.81 712.58 2355 713.55 2355.19 714.52C2355.72 717.22 2356.25 719.93 2356.77 722.66C2356.95 723.6 2357.12 724.54 2357.3 725.48C2357.82 728.25 2358.34 731.04 2358.84 733.84C2359 734.75 2359.17 735.67 2359.33 736.58C2359.84 739.44 2360.34 742.3 2360.84 745.18C2360.99 746.05 2361.14 746.92 2361.28 747.79C2361.78 750.73 2362.27 753.68 2362.75 756.64C2362.89 757.48 2363.02 758.32 2363.15 759.16C2363.63 762.17 2364.1 765.19 2364.56 768.23C2364.68 769.05 2364.81 769.87 2364.93 770.69C2365.39 773.76 2365.84 776.84 2366.28 779.93C2366.39 780.73 2366.51 781.54 2366.62 782.35C2367.06 785.48 2367.49 788.63 2367.9 791.79C2368 792.56 2368.1 793.33 2368.2 794.1C2368.61 797.3 2369.02 800.52 2369.41 803.75C2369.5 804.49 2369.59 805.24 2369.68 805.99C2370.07 809.26 2370.45 812.54 2370.81 815.84C2370.89 816.54 2370.96 817.25 2371.04 817.96C2371.4 821.3 2371.76 824.66 2372.09 828.02C2372.16 828.7 2372.22 829.38 2372.29 830.06C2372.62 833.47 2372.95 836.89 2373.25 840.32C2373.31 840.96 2373.36 841.6 2373.41 842.24C2373.71 845.72 2374 849.21 2374.27 852.71C2374.32 853.32 2374.36 853.92 2374.41 854.53C2374.68 858.08 2374.93 861.63 2375.17 865.2C2375.21 865.77 2375.24 866.34 2375.28 866.91C2375.51 870.52 2375.73 874.14 2375.93 877.77C2375.96 878.31 2375.98 878.86 2376.01 879.4C2376.2 883.07 2376.38 886.75 2376.54 890.44C2376.56 890.93 2376.58 891.42 2376.6 891.92C2376.75 895.67 2376.89 899.43 2377 903.2C2377.01 903.64 2377.02 904.09 2377.04 904.53C2377.15 908.35 2377.24 912.18 2377.31 916.03C2377.31 916.43 2377.31 916.83 2377.33 917.23C2377.39 921.13 2377.44 925.03 2377.46 928.95C2377.46 929.28 2377.46 929.61 2377.46 929.95C2377.47 933.94 2377.46 937.93 2377.44 941.93C2377.44 942.19 2377.44 942.46 2377.44 942.73C2377.4 946.8 2377.34 950.88 2377.25 954.97C2377.25 955.16 2377.24 955.36 2377.23 955.55C2377.14 959.72 2377.02 963.89 2376.87 968.08C2376.87 968.18 2376.87 968.28 2376.86 968.38C2375.47 1007.55 2371.64 1047.49 2364.73 1087.65C2332.35 1012.68 2265.16 925.65 2187.35 846.01C2238.36 785.83 2287.81 699.52 2318.81 572.11V572.1Z" fill="url(#paint29_linear_7_22)"/>
<path d="M2030.22 1361.7C2148.31 1212.65 2109.88 985.519 1944.38 854.393C1778.88 723.267 1548.99 737.797 1430.89 886.847C1312.8 1035.9 1351.23 1263.02 1516.73 1394.15C1682.23 1525.28 1912.13 1510.75 2030.22 1361.7Z" fill="url(#paint30_linear_7_22)"/>
<path style="mix-blend-mode:multiply" d="M1598.16 1167.69C1750.55 1015.12 1895.18 1038.12 2041.25 963.23C2119.33 1090.28 2119.98 1248.6 2030.25 1361.84C1912.15 1510.88 1682.25 1525.4 1516.76 1394.26C1503.22 1383.53 1490.55 1372.15 1478.74 1360.24C1500.64 1297.47 1531.47 1234.46 1598.17 1167.69H1598.16Z" fill="url(#paint31_linear_7_22)"/>
<path d="M2005.24 1341.89C2113.49 1205.27 2078.26 997.082 1926.55 876.886C1774.85 756.69 1564.12 770.006 1455.87 906.628C1347.63 1043.25 1382.86 1251.44 1534.56 1371.64C1686.26 1491.83 1896.99 1478.52 2005.24 1341.89Z" fill="url(#paint32_linear_7_22)"/>
<path d="M1969.82 1313.84C2064.11 1194.83 2033.43 1013.47 1901.28 908.771C1769.14 804.071 1585.57 815.673 1491.28 934.685C1396.98 1053.7 1427.67 1235.05 1559.81 1339.75C1691.96 1444.45 1875.52 1432.85 1969.82 1313.84Z" fill="url(#paint33_linear_7_22)"/>
<path d="M1405.67 2044.28C1437.89 2003.61 1352.43 1882.23 1214.79 1773.18C1077.14 1664.12 939.438 1608.68 907.216 1649.35C874.993 1690.02 960.454 1811.4 1098.1 1920.46C1235.74 2029.51 1373.44 2084.95 1405.67 2044.28Z" fill="url(#paint34_linear_7_22)"/>
<path d="M1132.51 1769.32L1239.47 1854.07C1296.38 1899.16 1320.27 1974.26 1299.87 2043.94L1280.52 2110.07C1273.4 2134.41 1243.9 2143.79 1224.02 2128.04L869.32 1846.98C849.44 1831.23 851.84 1800.37 873.9 1787.87L933.85 1753.91C997.03 1718.13 1075.59 1724.22 1132.5 1769.31L1132.51 1769.32Z" fill="url(#paint35_linear_7_22)"/>
<path d="M1263.57 2136.07C1293.97 2097.69 1226.54 1993.62 1112.94 1903.62C999.351 1813.62 882.618 1771.77 852.214 1810.15C821.809 1848.52 889.246 1952.59 1002.84 2042.59C1116.43 2132.59 1233.16 2174.44 1263.57 2136.07Z" fill="url(#paint36_linear_7_22)"/>
<path d="M901.56 1849.39C878.45 1878.55 929.7 1957.65 1016.03 2026.06C1102.36 2094.47 1191.08 2126.28 1214.19 2097.11C1237.3 2067.94 1186.05 1988.85 1099.72 1920.44C1013.39 1852.03 924.67 1820.22 901.56 1849.39Z" fill="url(#paint37_linear_7_22)"/>
<g style="mix-blend-mode:color-burn" opacity="0.3">
<path d="M1598.16 1167.69C1727.77 1037.93 1851.76 1035.16 1975.8 991.17C2040.95 1093.36 2042.58 1222.21 1969.86 1313.99C1875.56 1433 1691.99 1444.59 1559.85 1339.88C1540.54 1324.58 1523.41 1307.62 1508.5 1289.48C1528.75 1249.78 1556.42 1209.47 1598.15 1167.69H1598.16Z" fill="url(#paint38_linear_7_22)"/>
</g>
<mask id="mask0_7_22" style="mask-type:luminance" maskUnits="userSpaceOnUse" x="547" y="113" width="2074" height="1299">
<path d="M715.52 465.66C401.39 640.09 502.62 1485.11 1243.67 1313.16C1353 1287.79 1402.05 1127.36 1468.85 1231.28C1505.7 1288.6 1523.79 1311.31 1559.85 1339.88C1691.99 1444.59 1875.56 1433 1969.86 1313.99C2064.16 1194.98 2735.09 234.65 2602.95 129.94C2544.82 83.8801 2029.61 136.07 1759.55 240.48C1415.71 373.41 789.88 424.37 715.53 465.66H715.52Z" fill="white"/>
</mask>
<g mask="url(#mask0_7_22)">
<path d="M2344.02 448.3C2344.02 448.3 2359.56 425.28 2369.23 408.32C2378.9 391.36 2426.46 342.08 2426.46 342.08C2426.46 342.08 2430.94 348.93 2420.84 361.29C2410.74 373.64 2389.13 395.16 2395.14 403.05C2401.14 410.94 2416.74 417.05 2407.17 433.63C2397.6 450.2 2377.9 441 2369.28 454.36C2360.66 467.73 2351.9 482.26 2351.9 482.26L2344.01 448.3H2344.02Z" fill="url(#paint39_linear_7_22)"/>
<path d="M1083.73 959.72C1083.73 959.72 1058.73 969.08 1037.69 977.1C1016.66 985.12 1002.91 1004.38 986.83 1014.65C970.75 1024.91 991.67 1024.4 1004.58 1024.07C1017.5 1023.74 1043.08 1017.07 1050.36 1006.67C1057.64 996.27 1064.18 988.18 1066.05 988.28C1067.92 988.38 1096.73 976.87 1096.73 976.87L1083.73 959.73V959.72Z" fill="url(#paint40_linear_7_22)"/>
<path d="M1434.5 2038.34C1444.34 2039.94 1454.18 2041.53 1464.01 2043.12C1495.28 1943 1528.84 1840.68 1564.89 1736.38C1604.4 1622.05 1644.79 1511.44 1685.7 1404.59C1690.94 1447.36 1695.36 1497.21 1697.19 1552.94C1699.9 1635.65 1695.81 1698.4 1694.59 1715.77C1688.36 1804.57 1679.59 1814.24 1677.67 1869.88C1676.16 1913.62 1679.13 1978.41 1702.81 2059.13C1712.3 2059.5 1721.8 2059.89 1731.29 2060.27C1762.02 1962.45 1791.96 1842.83 1810.94 1704.67C1834.22 1535.24 1834.36 1386.41 1826.79 1268.26C1740.78 1262.27 1654.77 1256.3 1568.76 1250.31C1535.97 1307.37 1518.62 1357.24 1508.82 1392.55C1489.12 1463.51 1493.14 1499.91 1471.39 1622C1460.15 1685.09 1455.6 1694.82 1447.84 1736.7C1434.98 1806.04 1423.79 1906.94 1434.49 2038.35L1434.5 2038.34Z" fill="url(#paint41_linear_7_22)"/>
<path style="mix-blend-mode:multiply" opacity="0.3" d="M1516.1 1800.04C1532.31 1717.69 1502.14 1716.38 1523.35 1645.97C1542.86 1581.18 1571.22 1572.92 1599.83 1490.59C1622.79 1424.51 1611.97 1408.41 1627.56 1380.05C1646.83 1345.01 1696.36 1309.63 1828.86 1305.84C1828.26 1293.02 1827.59 1280.43 1826.81 1268.25C1740.8 1262.26 1654.79 1256.29 1568.78 1250.3C1535.99 1307.36 1518.64 1357.23 1508.84 1392.54C1489.14 1463.5 1493.16 1499.9 1471.41 1621.99C1460.17 1685.08 1455.63 1694.81 1447.86 1736.69C1435 1806.03 1423.81 1906.93 1434.51 2038.34C1444.35 2039.94 1454.19 2041.53 1464.02 2043.12C1464.93 2040.21 1465.89 2037.26 1466.8 2034.34C1462.62 2025.73 1458.99 2016.17 1456.68 2005.51C1441.7 1936.62 1495.85 1902.95 1516.1 1800.03V1800.04Z" fill="url(#paint42_linear_7_22)"/>
<path d="M1075.81 952.87C1081.27 963.79 1086.73 974.7 1092.19 985.62C1118.67 979.48 1157.85 968.6 1202.73 948.77C1274.31 917.16 1286.9 895.28 1354.21 870.98C1400.46 854.28 1459.69 833.8 1501.6 862.79C1516.85 873.34 1525.58 887.51 1530.59 897.99C1524.97 952.14 1518.85 995.2 1515.66 1021.84C1487.49 1257.07 1483.43 1299.87 1512.36 1326.53C1537.52 1349.71 1554.66 1330.31 1678.07 1345.13C1790.62 1358.64 1812.53 1379.12 1843.26 1361.3C1893.12 1332.39 1883.11 1250.79 1893.89 1151.2C1902.79 1069.02 1928.06 954 2002.13 817.96C2045.65 809.43 2126.77 787.29 2205.8 723.58C2318.29 632.89 2354.55 516.01 2365.47 473.83C2355.92 464.28 2346.36 454.72 2336.81 445.17C2304.93 486.82 2253.69 541.82 2177.14 580.28C2073.57 632.31 1991.32 620.09 1837.41 628.57C1776.85 631.91 1595.98 642.86 1453.95 689.42C1357.16 721.15 1219.07 788.98 1075.81 952.85V952.87Z" fill="url(#paint43_linear_7_22)"/>
<path d="M1794.41 565.52C1794.41 565.52 1787.53 595.5 1774.02 616.42C1761.81 635.33 1714.86 640.05 1704.99 642.97C1695.12 645.89 1718.66 663.97 1744.27 671.36C1769.88 678.74 1845.46 686.41 1860.69 678.97C1875.92 671.53 1851.57 667.86 1834.19 657.62C1816.82 647.39 1812.69 609.01 1819 593.08C1825.3 577.15 1794.41 565.52 1794.41 565.52Z" fill="url(#paint44_linear_7_22)"/>
<path d="M1844.08 559.15C1851.33 549.31 1849.29 529.93 1837.99 520.54C1829.6 513.57 1819.09 514.58 1811.42 515.31C1807.87 515.65 1782.92 518.33 1775.5 535.88C1773.14 541.46 1773.11 549.15 1775.12 555.3C1776.16 558.47 1778.28 562.45 1783.06 570.09C1787.3 576.87 1787 576.63 1788.31 578.61C1791.44 583.35 1797.55 591.37 1808.98 600.88C1809.8 597.57 1811.04 593.47 1813.01 589.03C1813.77 587.32 1816.8 580.65 1821.38 575.12C1830.67 563.9 1838.42 566.84 1844.09 559.14L1844.08 559.15Z" fill="url(#paint45_linear_7_22)"/>
<path d="M1794.24 591.38C1794.24 591.38 1805.66 610.3 1828.56 608.91C1849.06 607.67 1852.28 561.71 1839.23 551.9C1834.88 548.63 1826.13 547.24 1819.01 549.2C1814.8 550.36 1813.37 552.1 1806.46 553.86C1800.09 555.48 1798.29 554.77 1796.36 556.38C1793.95 558.39 1792.16 563.34 1796.12 576.8C1792.23 572.82 1787.54 571.28 1784.21 572.84C1783.68 573.09 1782.27 574.04 1781.47 575.49C1778.58 580.73 1783.34 587.46 1794.25 591.4L1794.24 591.38Z" fill="url(#paint46_linear_7_22)"/>
<g style="mix-blend-mode:multiply" opacity="0.3">
<path d="M1737.02 1118.69C1728.54 1048.09 1671.79 1044.48 1634.67 954.92C1595.8 861.15 1636.11 812.26 1597.82 778.87C1541.28 729.57 1407.61 796.25 1352.17 823.91C1303.87 848 1232.98 890.61 1160.42 965.62C1173.74 960.87 1187.92 955.32 1202.73 948.78C1274.31 917.17 1286.9 895.29 1354.21 870.99C1400.46 854.29 1459.69 833.81 1501.6 862.8C1516.85 873.35 1525.58 887.52 1530.59 898C1524.97 952.15 1518.85 995.21 1515.66 1021.85C1487.49 1257.08 1483.43 1299.88 1512.36 1326.54C1537.52 1349.72 1554.66 1330.32 1678.07 1345.14C1704.96 1348.37 1726.63 1351.99 1744.53 1355.4C1710.46 1319.02 1700.4 1287.58 1700.17 1261.98C1699.67 1206.64 1744.84 1183.8 1737.02 1118.68V1118.69Z" fill="url(#paint47_linear_7_22)"/>
</g>
</g>
<path d="M1059.26 2207.95C1024.9 2285.62 943.93 2422 758.42 2584.06C467.14 2838.53 471.28 2526.42 507.91 2453.51C544.54 2380.56 332.85 2548.45 132.95 2495.04C104.2 2487.34 84.7999 2475.24 73.3099 2460.19C18.8399 2388.85 127.45 2296.66 177.16 2262.41C278.22 2192.8 391.6 2209 506.04 2186.79C612.22 2166.17 705.13 2099.43 779.78 2023.67C818.77 1984.1 874.5 1965.85 929.38 1974.62C973.13 1981.65 1012.04 2005.2 1038.52 2039.69C1045.24 2048.41 1051.21 2057.89 1056.19 2067.95C1077.91 2111.79 1079.02 2163.16 1059.26 2207.94V2207.95Z" fill="url(#paint48_linear_7_22)"/>
<path style="mix-blend-mode:multiply" opacity="0.3" d="M1059.26 2207.95C1024.9 2285.62 943.93 2422 758.42 2584.06C467.14 2838.53 471.28 2526.42 507.91 2453.51C544.54 2380.56 332.85 2548.45 132.95 2495.04C104.2 2487.34 84.7901 2475.23 73.3101 2460.19C137.09 2467.98 232.12 2445.72 331.34 2404.55C488.64 2339.25 518.28 2314.02 536.09 2403.04C553.89 2492.06 537.6 2538.08 739.37 2466.87C919.37 2403.35 1019.07 2103.62 1038.52 2039.7C1045.24 2048.42 1051.21 2057.9 1056.19 2067.96C1077.91 2111.8 1079.02 2163.17 1059.26 2207.95Z" fill="black"/>
<defs>
<linearGradient id="paint0_linear_7_22" x1="1403.14" y1="544.48" x2="1015.27" y2="434.72" gradientUnits="userSpaceOnUse">
<stop stop-color="#311944"/>
<stop offset="1" stop-color="#A03976"/>
</linearGradient>
<linearGradient id="paint1_linear_7_22" x1="1402.12" y1="548.07" x2="1014.25" y2="438.31" gradientUnits="userSpaceOnUse">
<stop stop-color="#311944"/>
<stop offset="1" stop-color="#A03976"/>
</linearGradient>
<linearGradient id="paint2_linear_7_22" x1="1005.1" y1="299.37" x2="1011.17" y2="789.16" gradientUnits="userSpaceOnUse">
<stop stop-color="#FF9085"/>
<stop offset="1" stop-color="#FB6FBB"/>
</linearGradient>
<linearGradient id="paint3_linear_7_22" x1="1359.44" y1="1107.97" x2="599.64" y2="892.96" gradientUnits="userSpaceOnUse">
<stop stop-color="#311944"/>
<stop offset="1" stop-color="#A03976"/>
</linearGradient>
<linearGradient id="paint4_linear_7_22" x1="1357.44" y1="1115" x2="597.65" y2="900" gradientUnits="userSpaceOnUse">
<stop stop-color="#311944"/>
<stop offset="1" stop-color="#A03976"/>
</linearGradient>
<linearGradient id="paint5_linear_7_22" x1="579.73" y1="627.81" x2="591.61" y2="1587.27" gradientUnits="userSpaceOnUse">
<stop stop-color="#FF9085"/>
<stop offset="1" stop-color="#FB6FBB"/>
</linearGradient>
<linearGradient id="paint6_linear_7_22" x1="2724.61" y1="2759.98" x2="2364.76" y2="1542.41" gradientUnits="userSpaceOnUse">
<stop stop-color="#311944"/>
<stop offset="1" stop-color="#893976"/>
</linearGradient>
<linearGradient id="paint7_linear_7_22" x1="2424.87" y1="2437.96" x2="2377.61" y2="2061.99" gradientUnits="userSpaceOnUse">
<stop stop-color="#311944"/>
<stop offset="1" stop-color="#893976"/>
</linearGradient>
<linearGradient id="paint8_linear_7_22" x1="2585.33" y1="1753.84" x2="2451.6" y2="4216.59" gradientUnits="userSpaceOnUse">
<stop stop-color="#FF4A00"/>
<stop offset="1" stop-color="#9571F6"/>
</linearGradient>
<linearGradient id="paint9_linear_7_22" x1="2346.89" y1="2906.43" x2="1987.2" y2="1689.42" gradientUnits="userSpaceOnUse">
<stop stop-color="#311944"/>
<stop offset="1" stop-color="#893976"/>
</linearGradient>
<linearGradient id="paint10_linear_7_22" x1="2245.36" y1="1734.62" x2="2111.77" y2="4194.96" gradientUnits="userSpaceOnUse">
<stop stop-color="#F8D170"/>
<stop offset="1" stop-color="#FF4A00"/>
</linearGradient>
<linearGradient id="paint11_linear_7_22" x1="1933.81" y1="3065.84" x2="1571.39" y2="1839.6" gradientUnits="userSpaceOnUse">
<stop stop-color="#FF4A00"/>
<stop offset="1" stop-color="#DBC11C"/>
</linearGradient>
<linearGradient id="paint12_linear_7_22" x1="1841.83" y1="1711.75" x2="1708.33" y2="4170.46" gradientUnits="userSpaceOnUse">
<stop stop-color="#FFC400"/>
<stop offset="1" stop-color="#9571F6"/>
</linearGradient>
<linearGradient id="paint13_linear_7_22" x1="1462.58" y1="3235.64" x2="1102.88" y2="2018.59" gradientUnits="userSpaceOnUse">
<stop stop-color="#311944"/>
<stop offset="1" stop-color="#893976"/>
</linearGradient>
<linearGradient id="paint14_linear_7_22" x1="1397.56" y1="1687.44" x2="1264.24" y2="4142.75" gradientUnits="userSpaceOnUse">
<stop stop-color="#EAAA65"/>
<stop offset="1" stop-color="#9571F6"/>
</linearGradient>
<linearGradient id="paint15_linear_7_22" x1="1041.39" y1="3623.7" x2="595.73" y2="2115.84" gradientUnits="userSpaceOnUse">
<stop stop-color="#311944"/>
<stop offset="1" stop-color="#893976"/>
</linearGradient>
<linearGradient id="paint16_linear_7_22" x1="904.38" y1="1660.73" x2="771.29" y2="4111.96" gradientUnits="userSpaceOnUse">
<stop stop-color="#E38DDD"/>
<stop offset="1" stop-color="#9571F6"/>
</linearGradient>
<linearGradient id="paint17_linear_7_22" x1="2816.47" y1="1048.66" x2="2229.55" y2="3752.06" gradientUnits="userSpaceOnUse">
<stop stop-color="#E38DDD"/>
<stop offset="1" stop-color="#9571F6"/>
</linearGradient>
<linearGradient id="paint18_linear_7_22" x1="2414.29" y1="1311.47" x2="1904.39" y2="3660.14" gradientUnits="userSpaceOnUse">
<stop stop-color="#E38DDD"/>
<stop offset="1" stop-color="#9571F6"/>
</linearGradient>
<linearGradient id="paint19_linear_7_22" x1="1949.28" y1="1722.86" x2="1569.68" y2="3471.32" gradientUnits="userSpaceOnUse">
<stop stop-color="#E38DDD"/>
<stop offset="1" stop-color="#9571F6"/>
</linearGradient>
<linearGradient id="paint20_linear_7_22" x1="1410.41" y1="2210.99" x2="1188.75" y2="3231.99" gradientUnits="userSpaceOnUse">
<stop stop-color="#E38DDD"/>
<stop offset="1" stop-color="#9571F6"/>
</linearGradient>
<linearGradient id="paint21_linear_7_22" x1="849.77" y1="2448.75" x2="692.07" y2="3175.08" gradientUnits="userSpaceOnUse">
<stop stop-color="#E38DDD"/>
<stop offset="1" stop-color="#9571F6"/>
</linearGradient>
<linearGradient id="paint22_linear_7_22" x1="1819.56" y1="2300.84" x2="1398.15" y2="1966.96" gradientUnits="userSpaceOnUse">
<stop stop-color="#444B8C"/>
<stop offset="1" stop-color="#26264F"/>
</linearGradient>
<linearGradient id="paint23_linear_7_22" x1="986.352" y1="1640.61" x2="564.902" y2="1306.7" gradientUnits="userSpaceOnUse">
<stop stop-color="#444B8C"/>
<stop offset="1" stop-color="#26264F"/>
</linearGradient>
<linearGradient id="paint24_linear_7_22" x1="1152.44" y1="2983.59" x2="1496.35" y2="2332.62" gradientUnits="userSpaceOnUse">
<stop stop-color="#FFC444"/>
<stop offset="1" stop-color="#F36F56"/>
</linearGradient>
<linearGradient id="paint25_linear_7_22" x1="227.48" y1="2494.94" x2="571.4" y2="1843.96" gradientUnits="userSpaceOnUse">
<stop stop-color="#FFC444"/>
<stop offset="1" stop-color="#F36F56"/>
</linearGradient>
<linearGradient id="paint26_linear_7_22" x1="1682.51" y1="1690.04" x2="1532.92" y2="28.8494" gradientUnits="userSpaceOnUse">
<stop stop-color="#FFC444"/>
<stop offset="1" stop-color="#F36F56"/>
</linearGradient>
<linearGradient id="paint27_linear_7_22" x1="1810.55" y1="1678.52" x2="1660.97" y2="17.35" gradientUnits="userSpaceOnUse">
<stop stop-color="#FFC444"/>
<stop offset="1" stop-color="#F36F56"/>
</linearGradient>
<linearGradient id="paint28_linear_7_22" x1="1814.69" y1="1469.13" x2="1970.26" y2="879.57" gradientUnits="userSpaceOnUse">
<stop stop-color="#FFC444"/>
<stop offset="1" stop-color="#F36F56"/>
</linearGradient>
<linearGradient id="paint29_linear_7_22" x1="2291.89" y1="971.927" x2="2235.84" y2="349.533" gradientUnits="userSpaceOnUse">
<stop stop-color="#FFC444"/>
<stop offset="1" stop-color="#F36F56"/>
</linearGradient>
<linearGradient id="paint30_linear_7_22" x1="2030.17" y1="1361.68" x2="1430.83" y2="886.825" gradientUnits="userSpaceOnUse">
<stop stop-color="#EBEFF2"/>
<stop offset="1" stop-color="white"/>
</linearGradient>
<linearGradient id="paint31_linear_7_22" x1="2022.47" y1="1371.65" x2="1423.12" y2="896.784" gradientUnits="userSpaceOnUse">
<stop stop-color="#EBEFF2"/>
<stop offset="1" stop-color="white"/>
</linearGradient>
<linearGradient id="paint32_linear_7_22" x1="1789.12" y1="858.886" x2="1696.39" y2="1278.55" gradientUnits="userSpaceOnUse">
<stop stop-color="#EBEFF2"/>
<stop offset="1" stop-color="white"/>
</linearGradient>
<linearGradient id="paint33_linear_7_22" x1="1689.71" y1="1712" x2="1759.42" y2="707.231" gradientUnits="userSpaceOnUse">
<stop stop-color="#444B8C"/>
<stop offset="1" stop-color="#26264F"/>
</linearGradient>
<linearGradient id="paint34_linear_7_22" x1="995.944" y1="2084.49" x2="1169.02" y2="1827.98" gradientUnits="userSpaceOnUse">
<stop stop-color="#FFC444"/>
<stop offset="1" stop-color="#F36F56"/>
</linearGradient>
<linearGradient id="paint35_linear_7_22" x1="1321.7" y1="2062.35" x2="910.904" y2="1736.87" gradientUnits="userSpaceOnUse">
<stop stop-color="#AA80F9"/>
<stop offset="1" stop-color="#6165D7"/>
</linearGradient>
<linearGradient id="paint36_linear_7_22" x1="1095.48" y1="1869.48" x2="955.693" y2="2253.41" gradientUnits="userSpaceOnUse">
<stop stop-color="#AA80F9"/>
<stop offset="1" stop-color="#6165D7"/>
</linearGradient>
<linearGradient id="paint37_linear_7_22" x1="1086.51" y1="1894.54" x2="980.271" y2="2186.33" gradientUnits="userSpaceOnUse">
<stop stop-color="#444B8C"/>
<stop offset="1" stop-color="#26264F"/>
</linearGradient>
<linearGradient id="paint38_linear_7_22" x1="1732.61" y1="1715.13" x2="1802.32" y2="710.396" gradientUnits="userSpaceOnUse">
<stop stop-color="#444B8C"/>
<stop offset="1" stop-color="#26264F"/>
</linearGradient>
<linearGradient id="paint39_linear_7_22" x1="2292.49" y1="45.3779" x2="2573.36" y2="1109.12" gradientUnits="userSpaceOnUse">
<stop stop-color="#893976"/>
<stop offset="1" stop-color="#311944"/>
</linearGradient>
<linearGradient id="paint40_linear_7_22" x1="1576.38" y1="796.982" x2="564.036" y2="1210.92" gradientUnits="userSpaceOnUse">
<stop stop-color="#893976"/>
<stop offset="1" stop-color="#311944"/>
</linearGradient>
<linearGradient id="paint41_linear_7_22" x1="1842.47" y1="1399.92" x2="1492.92" y2="1863.78" gradientUnits="userSpaceOnUse">
<stop stop-color="#893976"/>
<stop offset="1" stop-color="#311944"/>
</linearGradient>
<linearGradient id="paint42_linear_7_22" x1="1415.49" y1="2017.12" x2="1767.66" y2="1083.35" gradientUnits="userSpaceOnUse">
<stop stop-color="#444B8C"/>
<stop offset="1" stop-color="#26264F"/>
</linearGradient>
<linearGradient id="paint43_linear_7_22" x1="2140.76" y1="424.546" x2="1511.17" y2="1102.96" gradientUnits="userSpaceOnUse">
<stop stop-color="#FFFF6A"/>
<stop offset="1" stop-color="#F6C171"/>
</linearGradient>
<linearGradient id="paint44_linear_7_22" x1="1736.12" y1="792.65" x2="1858.94" y2="452.83" gradientUnits="userSpaceOnUse">
<stop stop-color="#893976"/>
<stop offset="1" stop-color="#311944"/>
</linearGradient>
<linearGradient id="paint45_linear_7_22" x1="1767.63" y1="655.229" x2="1820.2" y2="521.995" gradientUnits="userSpaceOnUse">
<stop stop-color="#444B8C"/>
<stop offset="1" stop-color="#3E4177"/>
</linearGradient>
<linearGradient id="paint46_linear_7_22" x1="4710.15" y1="4195.4" x2="5397.05" y2="5054.91" gradientUnits="userSpaceOnUse">
<stop stop-color="#893976"/>
<stop offset="1" stop-color="#311944"/>
</linearGradient>
<linearGradient id="paint47_linear_7_22" x1="2137.86" y1="421.811" x2="1508.23" y2="1100.27" gradientUnits="userSpaceOnUse">
<stop stop-color="#AA80F9"/>
<stop offset="1" stop-color="#6165D7"/>
</linearGradient>
<linearGradient id="paint48_linear_7_22" x1="1375.97" y1="1534.56" x2="946.68" y2="1953.38" gradientUnits="userSpaceOnUse">
<stop stop-color="#FF9085"/>
<stop offset="1" stop-color="#FF4A00"/>
</linearGradient>
</defs>
</svg>
